<?xml version="1.0" standalone="no"?>
<!DOCTYPE svg PUBLIC "-//W3C//DTD SVG 20010904//EN"
  "http://www.w3.org/TR/2001/REC-SVG-20010904/DTD/svg10.dtd">
<svg width="14" height="14">
<g style="fill:black;fill-opacity:1;stroke:none;stroke-width:1;stroke-opacity:0;fill-rule:nonzero;">
<g style="fill:black;fill-opacity:1;stroke:none;stroke-width:1;stroke-opacity:0;fill-rule:nonzero;fill:none;">
<g style="fill:white;">
<g style="">
  <path d="M13.9998 0.669922C6.6665 0.669922 0.666504 6.65659 0.666504 14.0299C0.666504 20.6966 5.5465 26.2299 11.9198 27.2299V17.8966H8.53317V14.0299H11.9198V11.0833C11.9198 7.73659 13.9065 5.89659 16.9598 5.89659C18.4132 5.89659 19.9332 6.14992 19.9332 6.14992V9.44326H18.2532C16.5998 9.44326 16.0798 10.4699 16.0798 11.5233V14.0299H19.7865L19.1865 17.8966H16.0798V27.2299C19.2218 26.7337 22.0828 25.1306 24.1464 22.71C26.21 20.2894 27.3403 17.2108 27.3332 14.0299C27.3332 6.65659 21.3332 0.669922 13.9998 0.669922Z"/>
</g>
</g>
</g>
</g>
</svg>
