<svg width="20" height="21" viewBox="0 0 20 21" fill="none" xmlns="http://www.w3.org/2000/svg">
<path d="M14.36 12.3101C14.44 11.6501 14.5 10.9901 14.5 10.3101C14.5 9.63006 14.44 8.97006 14.36 8.31006H17.74C17.9 8.95006 18 9.62006 18 10.3101C18 11.0001 17.9 11.6701 17.74 12.3101M12.59 17.8701C13.19 16.7601 13.65 15.5601 13.97 14.3101H16.92C15.96 15.9601 14.43 17.2401 12.59 17.8701ZM12.34 12.3101H7.66C7.56 11.6501 7.5 10.9901 7.5 10.3101C7.5 9.63006 7.56 8.96006 7.66 8.31006H12.34C12.43 8.96006 12.5 9.63006 12.5 10.3101C12.5 10.9901 12.43 11.6501 12.34 12.3101ZM10 18.2701C9.17 17.0701 8.5 15.7401 8.09 14.3101H11.91C11.5 15.7401 10.83 17.0701 10 18.2701ZM6 6.31006H3.08C4.03 4.65006 5.57 3.37006 7.4 2.75006C6.8 3.86006 6.35 5.06006 6 6.31006ZM3.08 14.3101H6C6.35 15.5601 6.8 16.7601 7.4 17.8701C5.57 17.2401 4.03 15.9601 3.08 14.3101ZM2.26 12.3101C2.1 11.6701 2 11.0001 2 10.3101C2 9.62006 2.1 8.95006 2.26 8.31006H5.64C5.56 8.97006 5.5 9.63006 5.5 10.3101C5.5 10.9901 5.56 11.6501 5.64 12.3101M10 2.34006C10.83 3.54006 11.5 4.88006 11.91 6.31006H8.09C8.5 4.88006 9.17 3.54006 10 2.34006ZM16.92 6.31006H13.97C13.65 5.06006 13.19 3.86006 12.59 2.75006C14.43 3.38006 15.96 4.65006 16.92 6.31006ZM10 0.310059C4.47 0.310059 0 4.81006 0 10.3101C0 12.9622 1.05357 15.5058 2.92893 17.3811C3.85752 18.3097 4.95991 19.0463 6.17317 19.5489C7.38642 20.0514 8.68678 20.3101 10 20.3101C12.6522 20.3101 15.1957 19.2565 17.0711 17.3811C18.9464 15.5058 20 12.9622 20 10.3101C20 8.99684 19.7413 7.69648 19.2388 6.48322C18.7362 5.26997 17.9997 4.16758 17.0711 3.23899C16.1425 2.31041 15.0401 1.57381 13.8268 1.07126C12.6136 0.568716 11.3132 0.310059 10 0.310059Z" fill="white"/>
</svg>
