<svg width="860" height="110" viewBox="0 0 860 110" fill="none" xmlns="http://www.w3.org/2000/svg">
<path d="M204.286 2.0499C203.876 0.999905 202.686 0.469901 201.626 0.889901C200.706 1.2499 200.186 2.1999 200.356 3.1499C200.466 4.4899 200.496 15.1899 200.496 30.0699L202.636 26.9099L204.606 29.8099C204.586 2.8199 204.396 2.3499 204.286 2.0499Z" fill="#688C94"/>
<path d="M204.286 2.0499C203.876 0.999905 202.686 0.469901 201.626 0.889901C200.706 1.2499 200.186 2.1999 200.356 3.1499C200.466 4.4899 200.496 15.1899 200.496 30.0699L202.636 26.9099L204.606 29.8099C204.586 2.8199 204.396 2.3499 204.286 2.0499Z" stroke="#688C94" stroke-width="1.5" stroke-miterlimit="10"/>
<path d="M705.806 108.4C705.456 108.64 705.046 108.75 704.656 108.75C703.996 108.75 703.346 108.44 702.946 107.85L669.556 58.5897L672.026 54.9397L706.346 105.55C706.986 106.49 706.736 107.77 705.806 108.4Z" fill="#688C94"/>
<path d="M705.806 108.4C705.456 108.64 705.046 108.75 704.656 108.75C703.996 108.75 703.346 108.44 702.946 107.85L669.556 58.5897L672.026 54.9397L706.346 105.55C706.986 106.49 706.736 107.77 705.806 108.4Z" stroke="#688C94" stroke-width="1.5" stroke-miterlimit="10"/>
<path d="M706.176 4.57988L672.026 54.9399L669.556 58.5899L655.046 79.9899C655.056 77.4599 655.066 75.0099 655.066 72.6399L667.086 54.9299L669.556 51.2799L702.796 2.26988C703.426 1.33988 704.706 1.08988 705.646 1.71988C706.566 2.36988 706.816 3.63988 706.176 4.57988Z" fill="#688C94"/>
<path d="M706.176 4.57988L672.026 54.9399L669.556 58.5899L655.046 79.9899C655.056 77.4599 655.066 75.0099 655.066 72.6399L667.086 54.9299L669.556 51.2799L702.796 2.26988C703.426 1.33988 704.706 1.08988 705.646 1.71988C706.566 2.36988 706.816 3.63988 706.176 4.57988Z" stroke="#688C94" stroke-width="1.5" stroke-miterlimit="10"/>
<path d="M52.3556 72.3199C52.3456 74.7499 52.3456 77.1799 52.3356 79.5999L37.9756 58.4399L35.5056 54.7899L1.18565 4.16992C0.555645 3.22992 0.795648 1.95993 1.73565 1.31993C2.67565 0.689928 3.94565 0.929915 4.58565 1.86992L37.9856 51.1299L40.4557 54.7799L52.3556 72.3199Z" fill="#688C94"/>
<path d="M35.5056 54.78L37.9756 58.43L4.75557 107.43C4.11557 108.38 2.84557 108.62 1.90557 107.98C0.96557 107.35 0.725567 106.07 1.35557 105.13L35.5056 54.78Z" fill="#688C94"/>
<path d="M35.5056 54.78L37.9756 58.43L4.75557 107.43C4.11557 108.38 2.84557 108.62 1.90557 107.98C0.96557 107.35 0.725567 106.07 1.35557 105.13L35.5056 54.78Z" stroke="#688C94" stroke-width="1.5" stroke-miterlimit="10"/>
<path d="M56.5151 29.5898L70.9451 50.8799L68.4751 54.5298L56.5251 36.8998C56.5251 34.2598 56.5251 31.8298 56.5151 29.5898Z" fill="#688C94"/>
<path d="M56.5151 29.5898L70.9451 50.8799L68.4751 54.5298L56.5251 36.8998C56.5251 34.2598 56.5251 31.8298 56.5151 29.5898Z" stroke="#688C94" stroke-width="1.5" stroke-miterlimit="10"/>
<path d="M107.206 107.99C106.856 108.23 106.446 108.34 106.056 108.34C105.386 108.34 104.746 108.03 104.346 107.44L70.9556 58.18L73.4256 54.53L107.746 105.14C108.386 106.08 108.146 107.36 107.206 107.99Z" fill="#688C94"/>
<path d="M107.206 107.99C106.856 108.23 106.446 108.34 106.056 108.34C105.386 108.34 104.746 108.03 104.346 107.44L70.9556 58.18L73.4256 54.53L107.746 105.14C108.386 106.08 108.146 107.36 107.206 107.99Z" stroke="#688C94" stroke-width="1.5" stroke-miterlimit="10"/>
<path d="M52.3556 72.3199C52.3456 74.7499 52.3456 77.1799 52.3356 79.5999L37.9756 58.4399L35.5056 54.7899L1.18565 4.16992C0.555645 3.22992 0.795648 1.95993 1.73565 1.31993C2.67565 0.689928 3.94565 0.929915 4.58565 1.86992L37.9856 51.1299L40.4557 54.7799L52.3556 72.3199Z" stroke="#688C94" stroke-width="1.5" stroke-miterlimit="10"/>
<path d="M107.575 4.16996L73.4253 54.53L70.9553 58.18L56.4453 79.58C56.4553 77.05 56.4653 74.6 56.4653 72.23L68.4853 54.52L70.9553 50.87L104.195 1.85997C104.825 0.929966 106.095 0.679963 107.045 1.30996C107.975 1.95996 108.215 3.22996 107.575 4.16996Z" fill="#688C94"/>
<path d="M107.575 4.16996L73.4253 54.53L70.9553 58.18L56.4453 79.58C56.4553 77.05 56.4653 74.6 56.4653 72.23L68.4853 54.52L70.9553 50.87L104.195 1.85997C104.825 0.929966 106.095 0.679963 107.045 1.30996C107.975 1.95996 108.215 3.22996 107.575 4.16996Z" stroke="#688C94" stroke-width="1.5" stroke-miterlimit="10"/>
<path d="M255.656 4.38992L221.506 54.7499L219.026 51.0899L252.256 2.08991C252.896 1.14991 254.166 0.909921 255.106 1.54992C256.046 2.16992 256.286 3.44992 255.656 4.38992Z" fill="#688C94"/>
<path d="M255.656 4.38992L221.506 54.7499L219.026 51.0899L252.256 2.08991C252.896 1.14991 254.166 0.909921 255.106 1.54992C256.046 2.16992 256.286 3.44992 255.656 4.38992Z" stroke="#688C94" stroke-width="1.5" stroke-miterlimit="10"/>
<path d="M634.106 55.2L636.576 58.8499L603.356 107.85C602.716 108.79 601.446 109.04 600.506 108.4C599.566 107.77 599.326 106.49 599.956 105.55L634.106 55.2Z" fill="#688C94"/>
<path d="M634.106 55.2L636.576 58.8499L603.356 107.85C602.716 108.79 601.446 109.04 600.506 108.4C599.566 107.77 599.326 106.49 599.956 105.55L634.106 55.2Z" stroke="#688C94" stroke-width="1.5" stroke-miterlimit="10"/>
<path d="M651.016 30.2598C651.016 32.5898 651.006 35.0398 651.006 37.5698L639.056 55.1898L636.586 51.5398L651.016 30.2598Z" fill="#688C94"/>
<path d="M651.016 30.2598C651.016 32.5898 651.006 35.0398 651.006 37.5698L639.056 55.1898L636.586 51.5398L651.016 30.2598Z" stroke="#688C94" stroke-width="1.5" stroke-miterlimit="10"/>
<path d="M655.116 29.9998L669.546 51.2898L667.076 54.9398L655.126 37.3098C655.116 34.6698 655.116 32.2398 655.116 29.9998Z" fill="#688C94"/>
<path d="M655.116 29.9998L669.546 51.2898L667.076 54.9398L655.126 37.3098C655.116 34.6698 655.116 32.2398 655.116 29.9998Z" stroke="#688C94" stroke-width="1.5" stroke-miterlimit="10"/>
<path d="M650.946 72.7299C650.936 75.1599 650.936 77.5899 650.926 80.0098L636.566 58.8498L634.096 55.1999L599.776 4.57984C599.146 3.63984 599.386 2.36983 600.326 1.72983C601.266 1.09983 602.536 1.33984 603.176 2.27984L636.576 51.5398L639.046 55.1898L650.946 72.7299Z" fill="#688C94"/>
<path d="M650.946 72.7299C650.936 75.1599 650.936 77.5898 650.926 80.0098L636.566 58.8498L634.096 55.1999L599.776 4.57984C599.146 3.63984 599.386 2.36983 600.326 1.72983C601.266 1.09983 602.536 1.33984 603.176 2.27984L636.576 51.5398L639.046 55.1898L650.946 72.7299Z" stroke="#688C94" stroke-width="1.5" stroke-miterlimit="10"/>
<path d="M219.026 58.41L204.516 79.81C204.496 87.85 204.466 96.72 204.426 106.52C204.426 107.64 203.506 108.56 202.376 108.56H202.366C201.236 108.55 200.326 107.63 200.326 106.5C200.356 98.24 200.396 89.11 200.416 79.8L186.076 58.65L188.556 55L200.436 72.52C200.466 60.32 200.496 48.11 200.496 37.39L202.646 34.22L204.616 37.12C204.606 46.27 204.596 57.84 204.546 72.46L216.556 54.75L219.026 58.41Z" fill="#688C94"/>
<path d="M219.026 58.41L204.516 79.81C204.496 87.85 204.466 96.72 204.426 106.52C204.426 107.64 203.506 108.56 202.376 108.56H202.366C201.236 108.55 200.326 107.63 200.326 106.5C200.356 98.24 200.396 89.11 200.416 79.8L186.076 58.65L188.556 55L200.436 72.52C200.466 60.32 200.496 48.11 200.496 37.39L202.646 34.22L204.616 37.12C204.606 46.27 204.596 57.84 204.546 72.46L216.556 54.75L219.026 58.41Z" stroke="#688C94" stroke-width="1.5" stroke-miterlimit="10"/>
<path d="M186.066 51.3399L183.586 54.9899L149.266 4.37993C148.626 3.43993 148.876 2.15993 149.806 1.52993C150.746 0.899927 152.026 1.13994 152.656 2.06994L186.066 51.3399Z" fill="#688C94"/>
<path d="M186.066 51.3399L183.586 54.9899L149.266 4.37993C148.626 3.43993 148.876 2.15993 149.806 1.52993C150.746 0.899927 152.026 1.13994 152.656 2.06994L186.066 51.3399Z" stroke="#688C94" stroke-width="1.5" stroke-miterlimit="10"/>
<path d="M503.246 2.0499C502.836 0.999905 501.646 0.469901 500.586 0.889901C499.666 1.2499 499.146 2.1999 499.316 3.1499C499.426 4.4899 499.456 15.1899 499.456 30.0699L501.596 26.9099L503.566 29.8099C503.556 2.8199 503.366 2.3499 503.246 2.0499Z" fill="#688C94"/>
<path d="M52.4154 29.8499C52.4154 32.1799 52.4053 34.6299 52.4053 37.1599L40.4554 54.7798L37.9854 51.1299L52.4154 29.8499Z" fill="#688C94"/>
<path d="M52.4154 29.8499C52.4154 32.1799 52.4053 34.6299 52.4053 37.1599L40.4554 54.7798L37.9854 51.1299L52.4154 29.8499Z" stroke="#688C94" stroke-width="1.5" stroke-miterlimit="10"/>
<path d="M503.246 2.0499C502.836 0.999905 501.646 0.469901 500.586 0.889901C499.666 1.2499 499.146 2.1999 499.316 3.1499C499.426 4.4899 499.456 15.1899 499.456 30.0699L501.596 26.9099L503.566 29.8099C503.556 2.8199 503.366 2.3499 503.246 2.0499Z" stroke="#688C94" stroke-width="1.5" stroke-miterlimit="10"/>
<path d="M485.026 51.3399L482.546 54.9899L448.226 4.37993C447.586 3.43993 447.836 2.15993 448.766 1.52993C449.716 0.899927 450.986 1.13994 451.616 2.06994L485.026 51.3399Z" fill="#688C94"/>
<path d="M485.026 51.3399L482.546 54.9899L448.226 4.37993C447.586 3.43993 447.836 2.15993 448.766 1.52993C449.716 0.899927 450.986 1.13994 451.616 2.06994L485.026 51.3399Z" stroke="#688C94" stroke-width="1.5" stroke-miterlimit="10"/>
<path d="M554.616 4.38992L520.466 54.7499L517.986 51.0899L551.216 2.08991C551.856 1.14991 553.126 0.909921 554.066 1.54992C555.016 2.16992 555.246 3.44992 554.616 4.38992Z" fill="#688C94"/>
<path d="M554.616 4.38992L520.466 54.7499L517.986 51.0899L551.216 2.08991C551.856 1.14991 553.126 0.909921 554.066 1.54992C555.016 2.16992 555.246 3.44992 554.616 4.38992Z" stroke="#688C94" stroke-width="1.5" stroke-miterlimit="10"/>
<path d="M56.5154 37.12C56.5154 46.27 56.4954 57.84 56.4454 72.46C56.4454 74.82 56.4354 77.28 56.4254 79.81C56.3954 87.85 56.3754 96.72 56.3354 106.52C56.3254 107.65 55.4054 108.56 54.2854 108.56H54.2754C53.1454 108.56 52.2254 107.63 52.2354 106.5C52.2654 98.25 52.3054 89.13 52.3254 79.82C52.3354 77.4 52.3354 74.97 52.3454 72.54C52.3754 60.32 52.4054 48.09 52.4054 37.37C52.4054 34.84 52.4154 32.39 52.4154 30.06C52.4154 15.17 52.3754 4.48 52.2654 3.14C52.1054 2.2 52.6154 1.24001 53.5454 0.880009C54.5954 0.460009 55.7854 0.990007 56.2054 2.05001C56.3254 2.35001 56.4954 2.81 56.5054 29.81C56.5154 32.05 56.5154 34.48 56.5154 37.12Z" fill="#FFEBC0"/>
<path d="M655.115 37.3099C655.115 46.4599 655.096 58.0299 655.046 72.6499C655.046 75.0099 655.035 77.4699 655.025 79.9999C654.995 88.0399 654.975 96.9099 654.935 106.71C654.925 107.84 654.005 108.75 652.885 108.75H652.875C651.745 108.75 650.825 107.82 650.835 106.69C650.865 98.4399 650.905 89.32 650.925 80.01C650.935 77.59 650.935 75.16 650.945 72.73C650.975 60.51 651.005 48.2799 651.005 37.5599C651.005 35.0299 651.015 32.5899 651.015 30.2499C651.015 15.3599 650.975 4.66995 650.865 3.32995C650.695 2.39995 651.215 1.42995 652.145 1.06995C653.195 0.649951 654.385 1.17995 654.805 2.23995C654.915 2.53995 655.096 2.99994 655.106 29.9999C655.116 32.2399 655.115 34.6699 655.115 37.3099Z" fill="#FFEBC0"/>
<path d="M655.115 37.3099C655.115 46.4599 655.096 58.0299 655.046 72.6499C655.046 75.0099 655.035 77.4699 655.025 79.9999C654.995 88.0399 654.975 96.9099 654.935 106.71C654.925 107.84 654.005 108.75 652.885 108.75H652.875C651.745 108.75 650.825 107.82 650.835 106.69C650.865 98.4399 650.905 89.32 650.925 80.01C650.935 77.59 650.935 75.16 650.945 72.73C650.975 60.51 651.005 48.2799 651.005 37.5599C651.005 35.0299 651.015 32.5899 651.015 30.2499C651.015 15.3599 650.975 4.66995 650.865 3.32995C650.695 2.39995 651.215 1.42995 652.145 1.06995C653.195 0.649951 654.385 1.17995 654.805 2.23995C654.915 2.53995 655.096 2.99994 655.106 29.9999C655.116 32.2399 655.115 34.6699 655.115 37.3099Z" stroke="#FFEBC0" stroke-width="1.5" stroke-miterlimit="10"/>
<path d="M801.655 38.1599L805.315 40.6399L787.675 52.5999C796.835 52.5999 808.405 52.6199 823.035 52.6599L826.105 54.7499L823.115 56.7799C810.895 56.7499 798.655 56.7199 787.925 56.7199L805.565 68.6799L801.905 71.1599L780.605 56.7099C765.715 56.7099 755.015 56.7499 753.675 56.8599C752.735 57.0299 751.775 56.5099 751.415 55.5899C750.995 54.5299 751.525 53.3399 752.575 52.9299C752.875 52.8099 753.345 52.6299 780.345 52.6199L801.655 38.1599Z" fill="#688C94"/>
<path d="M801.655 38.1599L805.315 40.6399L787.675 52.5999C796.835 52.5999 808.405 52.6199 823.035 52.6599L826.105 54.7499L823.115 56.7799C810.895 56.7499 798.655 56.7199 787.925 56.7199L805.565 68.6799L801.905 71.1599L780.605 56.7099C765.715 56.7099 755.015 56.7499 753.675 56.8599C752.735 57.0299 751.775 56.5099 751.415 55.5899C750.995 54.5299 751.525 53.3399 752.575 52.9299C752.875 52.8099 753.345 52.6299 780.345 52.6199L801.655 38.1599Z" stroke="#688C94" stroke-width="1.5" stroke-miterlimit="10"/>
<path d="M801.905 71.1599L805.565 73.6399L754.925 107.97C753.985 108.61 752.715 108.37 752.075 107.42C751.445 106.48 751.685 105.21 752.625 104.57L801.905 71.1599Z" fill="#688C94"/>
<path d="M801.905 71.1599L805.565 73.6399L754.925 107.97C753.985 108.61 752.715 108.37 752.075 107.42C751.445 106.48 751.685 105.21 752.625 104.57L801.905 71.1599Z" stroke="#688C94" stroke-width="1.5" stroke-miterlimit="10"/>
<path d="M754.925 1.5099L805.325 35.6699L801.665 38.1499L752.635 4.90991C751.685 4.26991 751.455 2.99991 752.085 2.04991C752.715 1.11991 753.985 0.869903 754.925 1.5099Z" fill="#688C94"/>
<path d="M754.925 1.5099L805.325 35.6699L801.665 38.1499L752.635 4.90991C751.685 4.26991 751.455 2.99991 752.085 2.04991C752.715 1.11991 753.985 0.869903 754.925 1.5099Z" stroke="#688C94" stroke-width="1.5" stroke-miterlimit="10"/>
<path d="M255.275 108.21C254.925 108.45 254.515 108.56 254.125 108.56C253.465 108.56 252.815 108.24 252.425 107.66L219.025 58.3999L216.545 54.7399L204.605 37.1199L202.635 34.2199L200.485 37.3899L188.545 54.9999L186.065 58.6499L152.825 107.66C152.195 108.6 150.915 108.84 149.975 108.21C149.035 107.57 148.795 106.3 149.435 105.35L183.585 54.9899L186.065 51.3399L200.485 30.0599L202.625 26.8999L204.595 29.7999L219.015 51.0799L221.495 54.7399L255.815 105.35C256.455 106.29 256.205 107.57 255.275 108.21Z" fill="#FFEBC0"/>
<path d="M255.275 108.21C254.925 108.45 254.515 108.56 254.125 108.56C253.465 108.56 252.815 108.24 252.425 107.66L219.025 58.3999L216.545 54.7399L204.605 37.1199L202.635 34.2199L200.485 37.3899L188.545 54.9999L186.065 58.6499L152.825 107.66C152.195 108.6 150.915 108.84 149.975 108.21C149.035 107.57 148.795 106.3 149.435 105.35L183.585 54.9899L186.065 51.3399L200.485 30.0599L202.625 26.8999L204.595 29.7999L219.015 51.0799L221.495 54.7399L255.815 105.35C256.455 106.29 256.205 107.57 255.275 108.21Z" stroke="#FFEBC0" stroke-width="1.5" stroke-miterlimit="10"/>
<path d="M355.145 0H349.355V109.31H355.145V0Z" fill="black"/>
<path d="M352.245 82.84L350.195 79.81C350.175 89.12 350.135 98.2501 350.105 106.51C350.105 107.64 351.015 108.56 352.145 108.56H352.155C353.285 108.56 354.205 107.65 354.205 106.52C354.245 96.73 354.275 87.8501 354.295 79.8201L352.245 82.84ZM354.065 2.05005C353.655 0.99005 352.465 0.470052 351.405 0.880052C350.475 1.24005 349.965 2.20004 350.135 3.15004C350.235 4.49004 350.275 15.1801 350.275 30.0701L352.415 26.9101L354.385 29.81C354.375 2.82005 354.185 2.35005 354.065 2.05005Z" fill="#688C94"/>
<path d="M355.145 0H349.355V109.31H355.145V0Z" fill="black"/>
<path d="M352.245 82.84L350.195 79.81C350.175 89.12 350.135 98.2501 350.105 106.51C350.105 107.64 351.015 108.56 352.145 108.56H352.155C353.285 108.56 354.205 107.65 354.205 106.52C354.245 96.73 354.275 87.8501 354.295 79.8201L352.245 82.84ZM354.065 2.05005C353.655 0.99005 352.465 0.470052 351.405 0.880052C350.475 1.24005 349.965 2.20004 350.135 3.15004C350.235 4.49004 350.275 15.1801 350.275 30.0701L352.415 26.9101L354.385 29.81C354.375 2.82005 354.185 2.35005 354.065 2.05005Z" stroke="#688C94" stroke-width="1.5" stroke-miterlimit="10"/>
<path d="M830.375 52.6799C838.425 52.7099 847.305 52.7299 857.115 52.7699C858.245 52.7799 859.166 53.6999 859.166 54.8199V54.8299C859.156 55.9599 858.236 56.8799 857.106 56.8799C848.846 56.8499 839.726 56.8099 830.406 56.7899L833.425 54.7399L830.375 52.6799Z" stroke="#688C94" stroke-width="1.5" stroke-miterlimit="10"/>
<path d="M352.245 82.84L350.195 79.81C350.175 89.12 350.135 98.2501 350.105 106.51C350.105 107.64 351.015 108.56 352.145 108.56H352.155C353.285 108.56 354.205 107.65 354.205 106.52C354.245 96.73 354.275 87.8501 354.295 79.8201L352.245 82.84ZM354.065 2.05005C353.655 0.99005 352.465 0.470052 351.405 0.880052C350.475 1.24005 349.965 2.20004 350.135 3.15004C350.235 4.49004 350.275 15.1801 350.275 30.0701L352.415 26.9101L354.385 29.81C354.375 2.82005 354.185 2.35005 354.065 2.05005Z" fill="#688C94"/>
<path d="M333.375 55.0002L335.855 58.6502L302.615 107.66C301.985 108.6 300.715 108.84 299.765 108.2C298.825 107.57 298.585 106.29 299.225 105.35L333.375 55.0002Z" fill="#688C94"/>
<path d="M333.375 55.0002L335.855 58.6502L302.615 107.66C301.985 108.6 300.715 108.84 299.765 108.2C298.825 107.57 298.585 106.29 299.225 105.35L333.375 55.0002Z" stroke="#688C94" stroke-width="1.5" stroke-miterlimit="10"/>
<path d="M368.816 51.0901L366.336 54.7502L354.396 37.1302C354.386 46.2802 354.366 57.8502 354.326 72.4702L352.246 75.5302L350.206 72.5302C350.236 60.3202 350.266 48.1102 350.266 37.3902L338.326 55.0002L335.846 51.3502L350.266 30.0702L352.406 26.9102L354.376 29.8102L368.816 51.0901Z" fill="#688C94"/>
<path d="M368.816 51.0901L366.336 54.7502L354.396 37.1302C354.386 46.2802 354.366 57.8502 354.326 72.4702L352.246 75.5302L350.206 72.5302C350.236 60.3202 350.266 48.1102 350.266 37.3902L338.326 55.0002L335.846 51.3502L350.266 30.0702L352.406 26.9102L354.376 29.8102L368.816 51.0901Z" stroke="#688C94" stroke-width="1.5" stroke-miterlimit="10"/>
<path d="M405.066 108.2C404.716 108.44 404.306 108.55 403.916 108.56C403.256 108.56 402.606 108.24 402.216 107.66L368.816 58.4L371.296 54.74L405.616 105.35C406.246 106.29 406.006 107.57 405.066 108.2Z" fill="#688C94"/>
<path d="M405.066 108.2C404.716 108.44 404.306 108.55 403.916 108.56C403.256 108.56 402.606 108.24 402.216 107.66L368.816 58.4L371.296 54.74L405.616 105.35C406.246 106.29 406.006 107.57 405.066 108.2Z" stroke="#688C94" stroke-width="1.5" stroke-miterlimit="10"/>
<path d="M405.446 4.38994L371.296 54.7499L368.816 58.4099L354.306 79.8099L352.256 82.8399L350.206 79.8099L335.866 58.6599L333.386 55.01L299.066 4.39994C298.426 3.45994 298.676 2.17995 299.606 1.54995C300.546 0.909947 301.826 1.15994 302.456 2.08994L335.866 51.3499L338.346 54.9999L350.226 72.5299L352.266 75.5299L354.346 72.4699L366.356 54.76L368.836 51.0999L402.066 2.09995C402.696 1.15995 403.976 0.919942 404.916 1.55994C405.836 2.16994 406.076 3.44994 405.446 4.38994Z" fill="#FFEBC0"/>
<path d="M405.446 4.38994L371.296 54.7499L368.816 58.4099L354.306 79.8099L352.256 82.8399L350.206 79.8099L335.866 58.6599L333.386 55.01L299.066 4.39994C298.426 3.45994 298.676 2.17995 299.606 1.54995C300.546 0.909947 301.826 1.15994 302.456 2.08994L335.866 51.3499L338.346 54.9999L350.226 72.5299L352.266 75.5299L354.346 72.4699L366.356 54.76L368.836 51.0999L402.066 2.09995C402.696 1.15995 403.976 0.919942 404.916 1.55994C405.836 2.16994 406.076 3.44994 405.446 4.38994Z" stroke="#FFEBC0" stroke-width="1.5" stroke-miterlimit="10"/>
<path d="M858.805 1.87999C859.045 2.22999 859.156 2.63999 859.156 3.03999C859.156 3.69999 858.845 4.33999 858.255 4.73999L808.966 38.16L830.375 52.68L833.425 54.74L830.406 56.79L809.226 71.16L858.255 104.4C859.205 105.04 859.435 106.31 858.805 107.26C858.165 108.2 856.896 108.44 855.956 107.8L805.555 73.64L801.896 71.16L805.555 68.68L823.106 56.78L826.096 54.75L823.026 52.66L805.305 40.64L801.646 38.16L805.305 35.68L855.945 1.33998C856.895 0.699982 858.165 0.94999 858.805 1.87999Z" fill="#FFEBC0"/>
<path d="M858.805 1.87999C859.045 2.22999 859.156 2.63999 859.156 3.03999C859.156 3.69999 858.845 4.33999 858.255 4.73999L808.966 38.16L830.375 52.68L833.425 54.74L830.406 56.79L809.226 71.16L858.255 104.4C859.205 105.04 859.435 106.31 858.805 107.26C858.165 108.2 856.896 108.44 855.956 107.8L805.555 73.64L801.896 71.16L805.555 68.68L823.106 56.78L826.096 54.75L823.026 52.66L805.305 40.64L801.646 38.16L805.305 35.68L855.945 1.33998C856.895 0.699982 858.165 0.94999 858.805 1.87999Z" stroke="#FFEBC0" stroke-width="1.5" stroke-miterlimit="10"/>
<path d="M830.375 52.6799C838.425 52.7099 847.305 52.7299 857.115 52.7699C858.245 52.7799 859.166 53.6999 859.166 54.8199V54.8299C859.156 55.9599 858.236 56.8799 857.106 56.8799C848.846 56.8499 839.726 56.8099 830.406 56.7899L833.425 54.7399L830.375 52.6799Z" fill="#688C94"/>
<path d="M554.236 108.21C553.886 108.45 553.476 108.56 553.086 108.56C552.426 108.56 551.786 108.24 551.386 107.66L517.986 58.3999L515.506 54.7399L503.556 37.1199L501.586 34.2199L499.436 37.3899L487.496 54.9999L485.016 58.6499L451.776 107.66C451.146 108.6 449.876 108.84 448.926 108.21C447.996 107.57 447.746 106.3 448.386 105.35L482.536 54.9899L485.016 51.3399L499.436 30.0599L501.576 26.8999L503.546 29.7999L517.966 51.0799L520.446 54.7399L554.766 105.35C555.426 106.29 555.176 107.57 554.236 108.21Z" fill="#FFEBC0"/>
<path d="M517.996 58.41L503.486 79.81C503.466 87.85 503.436 96.72 503.396 106.52C503.396 107.64 502.476 108.56 501.346 108.56H501.336C500.206 108.55 499.296 107.63 499.296 106.5C499.326 98.24 499.366 89.11 499.386 79.8L485.046 58.65L487.526 55L499.406 72.52C499.436 60.32 499.466 48.11 499.466 37.39L501.616 34.22L503.586 37.12C503.576 46.27 503.556 57.84 503.516 72.46L515.526 54.75L517.996 58.41Z" fill="#688C94"/>
<path d="M517.996 58.41L503.486 79.81C503.466 87.85 503.436 96.72 503.396 106.52C503.396 107.64 502.476 108.56 501.346 108.56H501.336C500.206 108.55 499.296 107.63 499.296 106.5C499.326 98.24 499.366 89.11 499.386 79.8L485.046 58.65L487.526 55L499.406 72.52C499.436 60.32 499.466 48.11 499.466 37.39L501.616 34.22L503.586 37.12C503.576 46.27 503.556 57.84 503.516 72.46L515.526 54.75L517.996 58.41Z" stroke="#688C94" stroke-width="1.5" stroke-miterlimit="10"/>
<path d="M554.236 108.21C553.886 108.45 553.476 108.56 553.086 108.56C552.426 108.56 551.786 108.24 551.386 107.66L517.986 58.3999L515.506 54.7399L503.556 37.1199L501.586 34.2199L499.436 37.3899L487.496 54.9999L485.016 58.6499L451.776 107.66C451.146 108.6 449.876 108.84 448.926 108.21C447.996 107.57 447.746 106.3 448.386 105.35L482.536 54.9899L485.016 51.3399L499.436 30.0599L501.576 26.8999L503.546 29.7999L517.966 51.0799L520.446 54.7399L554.766 105.35C555.426 106.29 555.176 107.57 554.236 108.21Z" stroke="#FFEBC0" stroke-width="1.5" stroke-miterlimit="10"/>
</svg>
