<svg width="28" height="28" viewBox="0 0 28 28" fill="none" xmlns="http://www.w3.org/2000/svg">
<path d="M8.39984 0.616699H19.5998C23.8665 0.616699 27.3332 4.08337 27.3332 8.35003V19.55C27.3332 21.601 26.5184 23.568 25.0681 25.0183C23.6178 26.4686 21.6508 27.2834 19.5998 27.2834H8.39984C4.13317 27.2834 0.666504 23.8167 0.666504 19.55V8.35003C0.666504 6.29903 1.48126 4.33202 2.93154 2.88174C4.38183 1.43146 6.34883 0.616699 8.39984 0.616699ZM8.13317 3.28337C6.86013 3.28337 5.63923 3.78908 4.73906 4.68925C3.83888 5.58943 3.33317 6.81033 3.33317 8.08337V19.8167C3.33317 22.47 5.47984 24.6167 8.13317 24.6167H19.8665C21.1395 24.6167 22.3604 24.111 23.2606 23.2108C24.1608 22.3106 24.6665 21.0897 24.6665 19.8167V8.08337C24.6665 5.43003 22.5198 3.28337 19.8665 3.28337H8.13317ZM20.9998 5.28337C21.4419 5.28337 21.8658 5.45896 22.1783 5.77152C22.4909 6.08408 22.6665 6.508 22.6665 6.95003C22.6665 7.39206 22.4909 7.81598 22.1783 8.12854C21.8658 8.4411 21.4419 8.6167 20.9998 8.6167C20.5578 8.6167 20.1339 8.4411 19.8213 8.12854C19.5088 7.81598 19.3332 7.39206 19.3332 6.95003C19.3332 6.508 19.5088 6.08408 19.8213 5.77152C20.1339 5.45896 20.5578 5.28337 20.9998 5.28337ZM13.9998 7.28337C15.7679 7.28337 17.4636 7.98574 18.7139 9.23599C19.9641 10.4862 20.6665 12.1819 20.6665 13.95C20.6665 15.7181 19.9641 17.4138 18.7139 18.6641C17.4636 19.9143 15.7679 20.6167 13.9998 20.6167C12.2317 20.6167 10.536 19.9143 9.28579 18.6641C8.03555 17.4138 7.33317 15.7181 7.33317 13.95C7.33317 12.1819 8.03555 10.4862 9.28579 9.23599C10.536 7.98574 12.2317 7.28337 13.9998 7.28337ZM13.9998 9.95003C12.939 9.95003 11.9216 10.3715 11.1714 11.1216C10.4213 11.8717 9.99984 12.8892 9.99984 13.95C9.99984 15.0109 10.4213 16.0283 11.1714 16.7785C11.9216 17.5286 12.939 17.95 13.9998 17.95C15.0607 17.95 16.0781 17.5286 16.8283 16.7785C17.5784 16.0283 17.9998 15.0109 17.9998 13.95C17.9998 12.8892 17.5784 11.8717 16.8283 11.1216C16.0781 10.3715 15.0607 9.95003 13.9998 9.95003Z" fill="white"/>
</svg>
