<?xml version="1.0" standalone="no"?>
<!DOCTYPE svg PUBLIC "-//W3C//DTD SVG 20010904//EN"
  "http://www.w3.org/TR/2001/REC-SVG-20010904/DTD/svg10.dtd">
<svg width="62" height="62">
<g style="fill:black;fill-opacity:1;stroke:none;stroke-width:1;stroke-opacity:0;fill-rule:nonzero;">
<g style="fill:black;fill-opacity:1;stroke:none;stroke-width:1;stroke-opacity:0;fill-rule:nonzero;fill:none;">
<g style="">
<g style="">
  <path d="M65.7319 1.55264C65.2448 0.297538 63.8397 -0.320688 62.5846 0.166368C61.4981 0.597226 60.8798 1.73998 61.0671 2.84522C61.1983 4.43752 61.2359 17.1197 61.2359 34.7849L63.7648 31.0383L66.0877 34.4851C66.0877 2.47053 65.863 1.9273 65.7319 1.55264ZM63.5588 97.4466L61.1234 93.8686C61.0859 104.921 61.0486 115.749 61.0111 125.546C61.0111 126.895 62.0975 127.981 63.4463 128H63.465C64.7951 128 65.9004 126.913 65.9004 125.583C65.9566 113.95 65.9752 103.422 66.0127 93.8686L63.5588 97.4466Z"/>
</g>
</g>
<g style="">
<g style="">
  <path d="M44.1148 68.7482L4.68167 126.895C4.19462 127.588 3.44538 127.963 2.65859 127.963C2.19027 127.963 1.72198 127.832 1.29112 127.551C0.167135 126.783 -0.113814 125.284 0.635507 124.16L41.1736 64.4021L44.1148 68.7482Z"/>
</g>
</g>
<g style="">
<g style="">
  <path d="M126.259 127.55C125.135 128.299 123.636 127.999 122.868 126.894L83.229 68.4474L86.17 64.1013L126.896 124.159C127.664 125.283 127.364 126.8 126.259 127.55Z"/>
</g>
</g>
<g style="fill:#FFEBC0;">
<g style="">
  <path d="M83.2284 59.7551L66.1064 34.5031L63.7835 31.075L61.2546 34.8215L44.1326 60.0736L41.1914 64.4196L44.1326 68.7657L61.1609 93.8678L63.5963 97.4458L66.0502 93.849L83.2659 68.4659L86.2069 64.1199L83.2284 59.7551ZM61.1609 85.2132L47.0549 64.4009L61.2359 43.4762C61.2171 56.2146 61.1983 70.7139 61.1609 85.2132ZM66.0314 85.1195C66.0876 67.7728 66.1064 54.0416 66.1064 43.1765L80.2872 64.1011L66.0314 85.1195Z"/>
</g>
</g>
<g style="">
<g style="">
  <path d="M44.1141 60.0548L41.1729 64.4008L0.428525 4.34304C-0.320796 3.2378 -0.0396181 1.72045 1.08436 0.971135C2.18961 0.203084 3.70685 0.502804 4.45617 1.60805L44.1141 60.0548Z"/>
</g>
</g>
<g style="">
<g style="">
  <path d="M126.689 4.34304L86.1503 64.1011L83.2094 59.755L122.642 1.60805C123.392 0.502804 124.909 0.203084 126.033 0.971135C127.157 1.70172 127.457 3.21906 126.689 4.34304Z"/>
</g>
</g>
</g>
</g>
</svg>
