<svg width="128" height="128" viewBox="0 0 128 128" fill="none" xmlns="http://www.w3.org/2000/svg">
<path d="M126.595 127.554C126.176 127.84 125.699 127.974 125.222 127.974C124.44 127.974 123.678 127.611 123.201 126.906L83.5554 68.4386L66.3164 93.8392L63.8757 97.4434L61.4538 93.8583L44.4055 68.7437L4.96982 126.925C4.20704 128.05 2.70049 128.336 1.57538 127.573C0.469348 126.81 0.1643 125.304 0.927082 124.198L41.469 64.4149L44.4055 60.0671L47.3423 64.4149L61.4729 85.2389L63.8757 88.7858L66.3546 85.1435L80.6186 64.1289L83.5554 59.781L86.4922 64.1289L127.225 124.217C128.007 125.285 127.721 126.791 126.595 127.554Z" fill="#FFEBC0"/>
<path opacity="0.4" d="M66.3359 93.8203C66.2978 103.374 66.2788 113.901 66.2216 125.552C66.2026 126.906 65.1155 127.974 63.7807 127.974H63.7616C62.4267 127.955 61.3207 126.868 61.3397 125.533C61.3779 115.731 61.4161 104.919 61.4542 93.8585L63.8761 97.4435L66.3359 93.8203Z" fill="white"/>
<path opacity="0.4" d="M83.5561 59.7431L80.6193 64.091L66.4316 43.1526C66.4316 54.0222 66.4125 67.7523 66.3553 85.1056L63.8764 88.7479L61.4736 85.201C61.5117 70.7081 61.5497 56.1771 61.5497 43.4577L47.3621 64.377L44.4253 60.0482L61.5688 34.7811C61.5688 17.1036 61.5117 4.42235 61.3972 2.83958C61.2065 1.73355 61.8168 0.589371 62.9038 0.169841C64.1624 -0.325968 65.5736 0.30333 66.0694 1.54285C66.2029 1.90517 66.4316 2.45819 66.4316 34.495L83.5561 59.7431Z" fill="white"/>
<path opacity="0.4" d="M44.4254 60.0482L41.4888 64.377L0.756306 4.2888C-0.00647613 3.18277 0.298572 1.65721 1.40461 0.913498C2.51064 0.169785 4.03624 0.436752 4.77995 1.56186L44.4254 60.0482Z" fill="white"/>
<path opacity="0.4" d="M127.035 4.30745L86.4931 64.0905L83.5563 59.7426L122.992 1.56143C123.755 0.436328 125.261 0.150292 126.386 0.913074C127.512 1.67586 127.798 3.20142 127.035 4.30745Z" fill="white"/>
</svg>
