<?xml version="1.0" standalone="no"?>
<!DOCTYPE svg PUBLIC "-//W3C//DTD SVG 20010904//EN"
  "http://www.w3.org/TR/2001/REC-SVG-20010904/DTD/svg10.dtd">
<svg width="62" height="62">
<g style="fill:black;fill-opacity:1;stroke:none;stroke-width:1;stroke-opacity:0;fill-rule:nonzero;">
<g style="fill:black;fill-opacity:1;stroke:none;stroke-width:1;stroke-opacity:0;fill-rule:nonzero;fill:none;">
<g style="fill:#FFEBC0;">
<g style="">
  <path d="M127.392 4.30798L86.8444 64.0996L83.8954 68.4474L66.6555 93.8537C66.6177 103.4 66.5987 113.929 66.542 125.574C66.5231 126.916 65.4458 127.993 64.1036 127.993C62.7615 127.993 61.665 126.897 61.6839 125.555C61.7217 115.763 61.7597 104.931 61.7975 93.8726L44.7655 68.7499L41.8165 64.4021L1.06096 4.30798C0.304828 3.19268 0.607235 1.68039 1.72253 0.924248C2.83783 0.16811 4.34994 0.470577 5.10608 1.58588L44.7655 60.0732L47.7143 64.421L61.8351 85.2337C61.8729 70.7347 61.9108 56.2169 61.9108 43.4949C61.9297 40.4892 61.9297 37.5781 61.9297 34.7993C61.9297 17.1245 61.873 4.44033 61.7596 2.85244C61.5706 1.73713 62.1754 0.583997 63.2717 0.168121C64.5194 -0.323369 65.9372 0.300466 66.4287 1.54809C66.561 1.90726 66.7877 2.45544 66.7877 34.4968C66.8066 37.1622 66.8067 40.0544 66.8067 43.1735C66.8067 54.043 66.7879 67.7669 66.7312 85.1203L80.9842 64.0996L83.9332 59.7518L123.385 1.56696C124.141 0.451655 125.653 0.168149 126.768 0.905384C127.865 1.68043 128.148 3.19268 127.392 4.30798Z"/>
</g>
</g>
<g style="">
<g style="">
  <path d="M44.7654 68.7491L5.31409 126.934C4.55796 128.049 3.04562 128.333 1.93032 127.577C0.81502 126.821 0.531535 125.308 1.28767 124.193L41.8353 64.4014L44.7654 68.7491Z"/>
</g>
</g>
<g style="">
<g style="">
  <path d="M44.765 60.0542L61.9103 34.7803C61.9103 37.5591 61.9102 40.4702 61.8913 43.4759L47.7138 64.402L44.765 60.0542Z"/>
</g>
</g>
<g style="">
<g style="">
  <path d="M83.9134 59.7521L80.9644 64.0999L66.7869 43.1738C66.7869 40.0358 66.7868 37.1625 66.7679 34.4971L83.9134 59.7521Z"/>
</g>
</g>
<g style="">
<g style="">
  <path d="M126.957 127.577C126.542 127.861 126.069 127.993 125.596 127.993C124.821 127.993 124.046 127.615 123.574 126.935L83.9144 68.4474L86.8632 64.0996L127.619 124.194C128.356 125.309 128.054 126.821 126.957 127.577Z"/>
</g>
</g>
</g>
</g>
</svg>
