<svg width="120" height="62" viewBox="0 0 120 62" fill="none" xmlns="http://www.w3.org/2000/svg">
<path d="M117.729 9.28111C89.4947 -12.7901 87.4032 13.5444 63.3767 8.56953C56.7498 9.80086 54.182 15.8833 50.8592 13.5258C44.2075 9.76993 38.2427 -12.8148 4.65639 10.2092C-4.45796 16.5268 2.00806 17.6839 5.55356 13.7362C20.8184 -0.000309211 36.9556 -2.2031 47.3941 12.5543C49.2566 15.0108 56.1434 17.4982 55.9083 19.1751C49.931 20.8024 27.0864 27.2994 41.5221 34.1677C54.912 38.3505 70.5049 31.8164 82.3974 38.7589C89.5813 54.6858 39.177 44.6618 30.8918 60.2051C31.2754 64.2518 41.3426 57.7981 50.0424 55.0942C67.2378 53.275 80.5782 54.6548 86.2214 43.9503C90.3114 26.0743 42.4069 35.0525 39.8514 31.1296C42.0171 13.2164 93.3928 28.6236 109.134 21.8914C107.798 21.2913 66.8171 24.2118 56.7684 16.1989C65.6848 5.22203 66.6439 12.7152 78.4436 10.0298C94.9089 1.37334 103.701 -1.25021 115.953 10.9084C120.971 17.9994 121.033 12.1769 117.729 9.28111Z" fill="white"/>
<path d="M63.6744 40.8938C48.6137 46.9267 28.1514 40.9619 17.9356 44.5383C27.6625 46.2213 62.1398 48.9006 63.6744 40.8938Z" fill="white"/>
<path d="M33.596 39.7056C49.0094 40.4667 8.27619 30.9687 4.68119 41.8094C14.0987 39.3777 24.098 37.7936 33.596 39.7056Z" fill="white"/>
<path d="M110.904 41.9952C100.515 43.1832 98.1206 32.6704 86.8096 33.9946C101.202 38.6662 93.4489 41.0175 109.029 43.0285C114.363 43.146 110.904 41.8528 110.904 41.9952Z" fill="white"/>
</svg>
